<mxfile host="app.diagrams.net" modified="2024-05-09T23:26:41.621Z" agent="Mozilla/5.0 (Windows NT 10.0; Win64; x64) AppleWebKit/537.36 (KHTML, like Gecko) Chrome/124.0.0.0 Safari/537.36" etag="5ansfhk3mlHBcsOnWeWI" version="24.3.1" type="device">
  <diagram name="PÃ¡gina-1" id="yWw2GnAS78pQOsBucim6">
    <mxGraphModel dx="880" dy="468" grid="1" gridSize="10" guides="1" tooltips="1" connect="1" arrows="1" fold="1" page="1" pageScale="1" pageWidth="827" pageHeight="1169" math="0" shadow="0">
      <root>
        <mxCell id="0" />
        <mxCell id="1" parent="0" />
        <mxCell id="zDSYZHuE1KVRZZ_iBU7M-1" value="&lt;div&gt;&lt;br&gt;&lt;/div&gt;&lt;div&gt;&lt;br&gt;&lt;/div&gt;&lt;div&gt;&lt;br&gt;&lt;/div&gt;&lt;div&gt;&lt;br&gt;&lt;/div&gt;&lt;div&gt;&lt;br&gt;&lt;/div&gt;&lt;div&gt;&lt;br&gt;&lt;/div&gt;&lt;div&gt;&lt;br&gt;&lt;/div&gt;&lt;div&gt;brasil api&lt;/div&gt;" style="aspect=fixed;sketch=0;html=1;dashed=0;whitespace=wrap;fillColor=#2875E2;strokeColor=#ffffff;points=[[0.005,0.63,0],[0.1,0.2,0],[0.9,0.2,0],[0.5,0,0],[0.995,0.63,0],[0.72,0.99,0],[0.5,1,0],[0.28,0.99,0]];shape=mxgraph.kubernetes.icon2;kubernetesLabel=1;prIcon=api" vertex="1" parent="1">
          <mxGeometry x="490" y="121" width="82.29" height="79" as="geometry" />
        </mxCell>
        <mxCell id="zDSYZHuE1KVRZZ_iBU7M-13" style="edgeStyle=orthogonalEdgeStyle;rounded=0;orthogonalLoop=1;jettySize=auto;html=1;" edge="1" parent="1" source="zDSYZHuE1KVRZZ_iBU7M-6" target="zDSYZHuE1KVRZZ_iBU7M-1">
          <mxGeometry relative="1" as="geometry" />
        </mxCell>
        <mxCell id="zDSYZHuE1KVRZZ_iBU7M-20" value="GET" style="edgeLabel;html=1;align=center;verticalAlign=middle;resizable=0;points=[];" vertex="1" connectable="0" parent="zDSYZHuE1KVRZZ_iBU7M-13">
          <mxGeometry x="-0.0998" relative="1" as="geometry">
            <mxPoint as="offset" />
          </mxGeometry>
        </mxCell>
        <mxCell id="zDSYZHuE1KVRZZ_iBU7M-6" value="java-spring-app" style="shape=image;verticalLabelPosition=bottom;labelBackgroundColor=default;verticalAlign=top;aspect=fixed;imageAspect=0;image=https://static-00.iconduck.com/assets.00/spring-icon-256x256-2efvkvky.png;" vertex="1" parent="1">
          <mxGeometry x="286.28999999999996" y="122" width="76" height="76" as="geometry" />
        </mxCell>
        <mxCell id="zDSYZHuE1KVRZZ_iBU7M-12" style="edgeStyle=orthogonalEdgeStyle;rounded=0;orthogonalLoop=1;jettySize=auto;html=1;" edge="1" parent="1" source="zDSYZHuE1KVRZZ_iBU7M-8" target="zDSYZHuE1KVRZZ_iBU7M-6">
          <mxGeometry relative="1" as="geometry" />
        </mxCell>
        <mxCell id="zDSYZHuE1KVRZZ_iBU7M-17" value="GET" style="edgeLabel;html=1;align=center;verticalAlign=middle;resizable=0;points=[];" vertex="1" connectable="0" parent="zDSYZHuE1KVRZZ_iBU7M-12">
          <mxGeometry x="-0.1271" relative="1" as="geometry">
            <mxPoint as="offset" />
          </mxGeometry>
        </mxCell>
        <mxCell id="zDSYZHuE1KVRZZ_iBU7M-8" value="" style="aspect=fixed;sketch=0;html=1;dashed=0;whitespace=wrap;fillColor=#2875E2;strokeColor=#ffffff;points=[[0.005,0.63,0],[0.1,0.2,0],[0.9,0.2,0],[0.5,0,0],[0.995,0.63,0],[0.72,0.99,0],[0.5,1,0],[0.28,0.99,0]];shape=mxgraph.kubernetes.icon2;kubernetesLabel=1;prIcon=user" vertex="1" parent="1">
          <mxGeometry x="50" y="120" width="83.34" height="80" as="geometry" />
        </mxCell>
        <mxCell id="zDSYZHuE1KVRZZ_iBU7M-16" value="API Key" style="image;sketch=0;aspect=fixed;html=1;points=[];align=center;fontSize=12;image=img/lib/mscae/Key_Vaults.svg;" vertex="1" parent="1">
          <mxGeometry x="190" y="171" width="28.8" height="29" as="geometry" />
        </mxCell>
      </root>
    </mxGraphModel>
  </diagram>
</mxfile>
